<?xml version="1.0" encoding="UTF-8"?>
<svg viewBox="0 0 40 40" xmlns="http://www.w3.org/2000/svg">
 <path transform="matrix(.04596 0 0 .04663 -1.5607 -8.2498)" d="m886.77 607.54c0 226.59-186.27 410.28-416.03 410.28s-416.03-183.69-416.03-410.28 186.27-410.28 416.03-410.28 416.03 183.69 416.03 410.28z" fill="none" stroke="#000" stroke-width="35.099"/>
 <path transform="matrix(.02908 0 0 .04663 6.2382 -8.2498)" d="m886.77 607.54c0 226.59-186.27 410.28-416.03 410.28s-416.03-183.69-416.03-410.28 186.27-410.28 416.03-410.28 416.03 183.69 416.03 410.28z" fill="none" stroke="#000" stroke-width="44.125"/>
 <path transform="matrix(.05124 0 0 .05269 .97017 -7.7566)" d="m371.41 162.71-5.7583 728.42" fill="none" stroke="#000" stroke-width="31.274"/>
 <path transform="matrix(.05124 0 0 .05269 .97017 -7.7566)" d="m-3.1808 525.95 744.3-3.1808" fill="none" stroke="#000" stroke-width="31.274"/>
 <path transform="matrix(.05124 0 0 .05269 .97017 -7.7566)" d="m50.448 343.05 638.63-3.1808" fill="none" stroke="#000" stroke-width="31.274"/>
 <path transform="matrix(.05124 0 0 .05269 .97017 -7.7566)" d="m53.629 719.97 638.63-3.1808" fill="none" stroke="#000" stroke-width="31.274"/>
 <path d="m2.0679 12.887h36.276a2.0404 2.0404 0 0 1 2.0404 2.0404v8.6886a2.0404 2.0404 0 0 1 -2.0404 2.0404h-36.276a2.0404 2.0404 0 0 1 -2.0404 -2.0404v-8.6886a2.0404 2.0404 0 0 1 2.0404 -2.0404" fill="#fff"/>
 <text transform="scale(1.0991 .90986)" x="4.03595" y="27.04355" font-family="Bookman Old Style" font-size="16.445" font-weight="600" letter-spacing="0" word-spacing="0">
  <tspan x="4.03595" y="27.04355" font-family="Bookman Old Style" font-weight="600">ISO</tspan>
 </text>
</svg>
